<?xml version="1.0" encoding="utf-8"?>
<!-- Generator: Adobe Illustrator 16.0.0, SVG Export Plug-In . SVG Version: 6.00 Build 0)  -->
<!DOCTYPE svg PUBLIC "-//W3C//DTD SVG 1.1//EN" "http://www.w3.org/Graphics/SVG/1.1/DTD/svg11.dtd">
<svg version="1.1" id="Layer_1" xmlns="http://www.w3.org/2000/svg" xmlns:xlink="http://www.w3.org/1999/xlink" x="0px" y="0px"
	 width="100px" height="100px" viewBox="0 0 100 100" enable-background="new 0 0 100 100" xml:space="preserve">
<path fill="#EBEEEF" d="M50,0c27.613,0,50,22.386,50,50s-22.387,50-50,50C22.386,100,0,77.613,0,50C0,22.385,22.386,0,50,0z"/>
<g>
	<defs>
		<circle id="SVGID_1_" cx="50" cy="50" r="50"/>
	</defs>
	<clipPath id="SVGID_2_">
		<use xlink:href="#SVGID_1_"  overflow="visible"/>
	</clipPath>
	<g clip-path="url(#SVGID_2_)">
		<path fill="#EBEEEF" d="M78.48,66.229c-4.528,2.267-11.769,2.334-16.48,0.224v6c4.713,2.11,11.952,2.043,16.48-0.224
			c2.328-1.162,3.496-2.687,3.513-4.211h0.003v-6.028C81.995,63.523,80.823,65.059,78.48,66.229z"/>
		<path fill="#EBEEEF" d="M38,66.447c-4.712,2.115-11.957,2.049-16.49-0.219c-2.316-1.156-3.482-2.67-3.51-4.189v5.895
			c-0.027,1.553,1.139,3.111,3.51,4.295c4.533,2.27,11.778,2.334,16.49,0.221V66.447z"/>
	</g>
</g>
<path fill="#DDCC2C" d="M50.498,20.968l5.241,16.134l1.257,3.864h4.061h16.962l-13.724,9.966l-3.287,2.388l1.257,3.864l5.241,16.135
	l-13.723-9.971l-3.285-2.389l-3.286,2.386l-13.726,9.972l5.243-16.136l1.254-3.863l-3.288-2.386l-13.722-9.971h16.961h4.063
	l1.258-3.862L50.498,20.968 M50.498,2.876L39.938,35.375L5.769,35.371l27.644,20.082l-10.56,32.499l27.646-20.083l27.645,20.083
	L67.585,55.453l27.642-20.082h-34.17L50.498,2.876L50.498,2.876z"/>
</svg>
