<?xml version="1.0" encoding="utf-8"?>
<!-- Generator: Adobe Illustrator 16.0.0, SVG Export Plug-In . SVG Version: 6.00 Build 0)  -->
<!DOCTYPE svg PUBLIC "-//W3C//DTD SVG 1.1//EN" "http://www.w3.org/Graphics/SVG/1.1/DTD/svg11.dtd">
<svg version="1.1" id="Layer_1" xmlns="http://www.w3.org/2000/svg" xmlns:xlink="http://www.w3.org/1999/xlink" x="0px" y="0px"
	 width="100px" height="100px" viewBox="0 0 100 100" enable-background="new 0 0 100 100" xml:space="preserve">
<circle fill="#A01717" cx="50" cy="50" r="50"/>
<g>
	<defs>
		<path id="SVGID_1_" d="M100,50c0,27.614-22.387,50-50,50C22.386,100,0,77.614,0,50S22.386,0,50,0h50V50z"/>
	</defs>
	<clipPath id="SVGID_2_">
		<use xlink:href="#SVGID_1_"  overflow="visible"/>
	</clipPath>
	<g clip-path="url(#SVGID_2_)">
		<g>
			<defs>
				<path id="SVGID_3_" d="M100,50c0,27.614-22.387,50-50,50C22.386,100,0,77.614,0,50S22.386,0,50,0h50V50z"/>
			</defs>
			<defs>
				<path id="SVGID_4_" d="M100,50c0,27.614-22.387,50-50,50C22.386,100,0,77.614,0,50S22.386,0,50,0h50V50z"/>
			</defs>
			<defs>
				<path id="SVGID_5_" d="M100,50c0,27.614-22.387,50-50,50C22.386,100,0,77.614,0,50S22.386,0,50,0h50V50z"/>
			</defs>
			<clipPath id="SVGID_6_">
				<use xlink:href="#SVGID_3_"  overflow="visible"/>
			</clipPath>
			<clipPath id="SVGID_7_" clip-path="url(#SVGID_6_)">
				<use xlink:href="#SVGID_4_"  overflow="visible"/>
			</clipPath>
			<clipPath id="SVGID_8_" clip-path="url(#SVGID_7_)">
				<use xlink:href="#SVGID_5_"  overflow="visible"/>
			</clipPath>
		</g>
		<g>
			<defs>
				<path id="SVGID_9_" d="M100,50c0,27.614-22.387,50-50,50C22.386,100,0,77.614,0,50S22.386,0,50,0h50V50z"/>
			</defs>
			<clipPath id="SVGID_10_">
				<use xlink:href="#SVGID_9_"  overflow="visible"/>
			</clipPath>
		</g>
	</g>
</g>
<text transform="matrix(1 0 0 1 4.1665 58.1797)" fill="#FFFFFF" font-family="'Oswald'" font-size="19">STOCKHOLM</text>
</svg>
